<svg xmlns="http://www.w3.org/2000/svg" xmlns:xlink="http://www.w3.org/1999/xlink" width="1025" zoomAndPan="magnify" viewBox="0 0 768.75 768.749994" height="1025" preserveAspectRatio="xMidYMid meet" version="1.0"><defs><clipPath id="c99751b9a6"><path d="M 0 0 L 768.5 0 L 768.5 768.5 L 0 768.5 Z M 0 0 " clip-rule="nonzero"/></clipPath><clipPath id="d5bf027c6d"><path d="M 0 15 L 47.984375 15 L 47.984375 35.988281 L 0 35.988281 Z M 0 15 " clip-rule="nonzero"/></clipPath><clipPath id="7a731f4b5b"><path d="M 170 327 L 651 327 L 651 654.542969 L 170 654.542969 Z M 170 327 " clip-rule="nonzero"/></clipPath><clipPath id="4e2b69616a"><path d="M 30.308594 147 L 371 147 L 371 518 L 30.308594 518 Z M 30.308594 147 " clip-rule="nonzero"/></clipPath></defs><g clip-path="url(#c99751b9a6)"><path fill="#ffffff" d="M 0 0 L 768.5 0 L 768.5 768.5 L 0 768.5 Z M 0 0 " fill-opacity="1" fill-rule="nonzero"/><path fill="#ffffff" d="M 0 0 L 768.5 0 L 768.5 768.5 L 0 768.5 Z M 0 0 " fill-opacity="1" fill-rule="nonzero"/></g><path fill="#ffffff" d="M 18.09375 30.121094 C 18.195312 30.214844 18.320312 30.269531 18.449219 30.300781 C 18.527344 30.316406 18.601562 30.328125 18.679688 30.328125 L 18.679688 9.550781 L 15.6875 9.550781 L 15.6875 28.09375 L 17.960938 30.007812 Z M 18.09375 30.121094 " fill-opacity="1" fill-rule="nonzero"/><path fill="#ffffff" d="M 4.613281 13.734375 L 1.625 13.734375 L 1.625 28.597656 L 4.613281 26.488281 Z M 4.613281 13.734375 " fill-opacity="1" fill-rule="nonzero"/><path fill="#ffffff" d="M 9.839844 23.234375 L 10.214844 23.476562 C 10.230469 23.488281 10.25 23.503906 10.265625 23.515625 L 11.648438 24.679688 L 11.648438 5.972656 L 8.652344 5.972656 L 8.652344 23.628906 L 9.207031 23.242188 C 9.398438 23.109375 9.648438 23.101562 9.839844 23.234375 Z M 9.839844 23.234375 " fill-opacity="1" fill-rule="nonzero"/><path fill="#ffffff" d="M 25.707031 0 L 22.714844 0 L 22.714844 27.980469 L 25.707031 26.125 Z M 25.707031 0 " fill-opacity="1" fill-rule="nonzero"/><path fill="#ffffff" d="M 32.738281 3.582031 L 29.75 3.582031 L 29.75 23.613281 L 32.738281 21.761719 Z M 32.738281 3.582031 " fill-opacity="1" fill-rule="nonzero"/><g clip-path="url(#d5bf027c6d)"><path fill="#ffffff" d="M 47.703125 17.113281 C 47.691406 17.085938 47.660156 17.042969 47.617188 17.03125 L 36.316406 15.523438 C 36.300781 15.523438 36.269531 15.519531 36.226562 15.574219 C 36.183594 15.632812 36.15625 15.734375 36.210938 15.839844 L 37.941406 19.246094 C 38.070312 19.496094 37.976562 19.800781 37.738281 19.945312 L 19.71875 31.121094 C 18.988281 31.582031 18.039062 31.511719 17.371094 30.945312 L 9.542969 24.351562 L 0.00390625 31.09375 L 7.527344 28.90625 C 8.160156 28.722656 8.84375 28.863281 9.359375 29.292969 L 17.203125 35.777344 C 17.207031 35.777344 17.207031 35.777344 17.214844 35.777344 C 17.230469 35.773438 17.246094 35.773438 17.261719 35.773438 C 17.316406 35.773438 17.371094 35.785156 17.429688 35.800781 L 39.492188 23.617188 C 39.628906 23.546875 39.777344 23.53125 39.925781 23.574219 C 40.070312 23.617188 40.191406 23.714844 40.257812 23.851562 L 42.117188 27.511719 C 42.144531 27.566406 42.183594 27.597656 42.21875 27.597656 C 42.269531 27.597656 42.300781 27.554688 42.324219 27.519531 L 47.710938 17.359375 C 47.753906 17.265625 47.738281 17.171875 47.703125 17.113281 Z M 47.703125 17.113281 " fill-opacity="1" fill-rule="nonzero"/></g><g clip-path="url(#7a731f4b5b)"><path fill="#1e7334" d="M 583.539062 333.136719 C 583.042969 333.339844 582.546875 333.546875 582.050781 333.761719 C 581.828125 333.855469 581.601562 333.949219 581.378906 334.046875 C 578.390625 335.351562 575.433594 336.753906 572.421875 337.878906 C 578.839844 344.726562 585.226562 352.09375 587.507812 361.167969 C 589.878906 370.605469 586.132812 382.324219 576.96875 385.601562 C 570.074219 388.066406 562.515625 385.226562 555.8125 382.28125 C 548.253906 378.960938 540.777344 375.453125 533.386719 371.777344 L 536.203125 373.871094 C 538.722656 378.59375 541.003906 383.644531 541.117188 388.996094 C 541.230469 394.347656 538.683594 400.070312 533.804688 402.265625 C 528.355469 404.722656 522.019531 402.226562 516.804688 399.304688 C 499.957031 389.863281 485.839844 375.621094 476.546875 358.691406 C 474.007812 354.070312 471.792969 349.128906 471.382812 343.875 C 470.972656 338.621094 472.648438 332.96875 476.746094 329.65625 L 477.207031 329.996094 C 476.589844 329.027344 476.019531 328.039062 475.472656 327.039062 L 170.019531 365.386719 L 249.488281 654.339844 L 647.59375 594.078125 C 648.496094 586.296875 649.515625 578.535156 650.851562 570.835938 L 584.003906 332.953125 C 583.851562 333.015625 583.695312 333.074219 583.539062 333.136719 Z M 583.539062 333.136719 " fill-opacity="1" fill-rule="nonzero"/></g><path fill="#f6f0e4" d="M 576.96875 385.601562 C 570.074219 388.066406 562.515625 385.226562 555.8125 382.28125 C 548.253906 378.960938 540.777344 375.453125 533.386719 371.777344 L 536.203125 373.871094 C 538.722656 378.59375 541.003906 383.644531 541.117188 388.996094 C 541.230469 394.347656 538.683594 400.070312 533.804688 402.265625 C 528.355469 404.722656 522.019531 402.226562 516.804688 399.304688 C 499.957031 389.863281 485.839844 375.621094 476.546875 358.691406 C 474.007812 354.070312 471.792969 349.128906 471.382812 343.875 C 470.972656 338.621094 472.648438 332.96875 476.746094 329.65625 L 477.203125 329.996094 C 473.0625 323.464844 470.359375 316.1875 470.402344 308.503906 C 470.449219 299.027344 474.582031 290.285156 479.566406 282.0625 C 472.863281 281.667969 466.179688 281.769531 459.671875 282.539062 C 421.738281 287.039062 387.027344 319.511719 387.027344 319.511719 C 354.828125 302.734375 316.53125 298.625 281.148438 307.011719 C 245.769531 315.398438 213.703125 336.863281 192.636719 366.265625 L 261.417969 620.242188 L 266.632812 631.644531 C 317.082031 593.273438 390.421875 583.164062 455.9375 596.945312 C 459.832031 596.160156 463.738281 595.421875 467.65625 594.765625 C 485.136719 582.09375 549.109375 542.695312 632.867188 574.085938 L 634.367188 559.035156 L 584.277344 379.914062 C 582.449219 382.476562 580.015625 384.511719 576.96875 385.601562 Z M 576.96875 385.601562 " fill-opacity="1" fill-rule="nonzero"/><path fill="#f6f0e4" d="M 572.511719 337.839844 C 572.480469 337.851562 572.449219 337.867188 572.421875 337.878906 C 572.46875 337.929688 572.515625 337.980469 572.5625 338.03125 Z M 572.511719 337.839844 " fill-opacity="1" fill-rule="nonzero"/><path fill="#200f02" d="M 450.3125 532.519531 C 454.046875 533.957031 452.414062 540.027344 448.644531 538.574219 C 447.320312 538.0625 446.847656 537.378906 446.351562 536.195312 C 445.367188 533.855469 444.765625 531.292969 444.035156 528.871094 C 442.417969 523.496094 440.839844 518.109375 439.265625 512.722656 C 434.359375 495.933594 429.527344 479.125 424.695312 462.3125 C 419.066406 442.71875 413.460938 423.121094 407.859375 403.519531 C 403.164062 387.09375 398.472656 370.664062 393.773438 354.238281 C 391.710938 347.019531 389.929688 339.625 387.519531 332.515625 C 386.214844 328.671875 392.28125 327.039062 393.570312 330.847656 C 393.632812 331.027344 393.679688 331.21875 393.742188 331.402344 C 396.488281 339.824219 398.660156 348.476562 401.09375 356.996094 C 405.902344 373.820312 410.707031 390.652344 415.519531 407.480469 C 421.074219 426.90625 426.632812 446.332031 432.214844 465.75 C 436.828125 481.796875 441.449219 497.839844 446.140625 513.863281 C 447.609375 518.871094 449.074219 523.875 450.59375 528.867188 C 451.015625 530.261719 451.4375 531.660156 451.890625 533.042969 C 452.015625 533.429688 452.179688 533.8125 452.28125 534.203125 C 452.441406 534.808594 452.335938 534.085938 452.105469 533.824219 C 452.171875 533.894531 450.742188 532.683594 450.3125 532.519531 Z M 278.957031 609.828125 C 318.785156 580.757812 369.269531 567.515625 418.265625 572.550781 C 430.6875 573.824219 442.992188 576.363281 454.914062 580.078125 C 457.148438 580.773438 460.570312 582.792969 462.917969 582.175781 C 463.660156 581.984375 464.21875 581.429688 464.808594 580.972656 C 464.863281 580.929688 464.261719 581.386719 464.945312 580.867188 C 465.246094 580.640625 465.546875 580.414062 465.847656 580.1875 C 466.859375 579.429688 467.882812 578.683594 468.910156 577.953125 C 484.632812 566.757812 502.050781 557.339844 520.511719 551.582031 C 548.640625 542.808594 579.550781 545.113281 607.613281 553.019531 C 611.507812 554.117188 613.167969 548.0625 609.28125 546.964844 C 584.191406 539.898438 556.59375 537.074219 530.882812 542.390625 C 509.707031 546.773438 489.621094 556.636719 471.652344 568.484375 C 467.621094 571.140625 463.628906 573.902344 459.863281 576.929688 C 460.882812 576.660156 461.898438 576.390625 462.917969 576.121094 C 414.449219 559.195312 360.070312 562.464844 313.203125 582.9375 C 299.992188 588.707031 287.433594 595.902344 275.789062 604.402344 C 272.558594 606.765625 275.6875 612.214844 278.957031 609.828125 Z M 278.957031 609.828125 " fill-opacity="1" fill-rule="nonzero"/><path fill="#200f02" d="M 374.664062 185.824219 C 366.015625 201.316406 358.683594 218.0625 353.417969 235.011719 C 352.214844 238.878906 358.273438 240.535156 359.472656 236.679688 C 364.582031 220.230469 371.691406 204.03125 380.085938 188.992188 C 382.058594 185.460938 376.636719 182.292969 374.664062 185.824219 Z M 374.664062 185.824219 " fill-opacity="1" fill-rule="nonzero"/><path fill="#200f02" d="M 419.402344 222.832031 C 404.296875 229.808594 389.632812 237.683594 375.476562 246.425781 C 372.042969 248.542969 375.191406 253.976562 378.644531 251.847656 C 392.796875 243.105469 407.464844 235.230469 422.570312 228.253906 C 426.234375 226.5625 423.046875 221.148438 419.402344 222.832031 Z M 419.402344 222.832031 " fill-opacity="1" fill-rule="nonzero"/><path fill="#200f02" d="M 735.25 206.910156 C 719.226562 203.554688 703.171875 200.347656 687.109375 197.191406 C 655.613281 191.003906 624.058594 185.042969 592.375 179.878906 C 584.972656 178.675781 577.566406 177.519531 570.148438 176.453125 C 566.6875 175.953125 563.222656 175.476562 559.757812 175.019531 C 555.230469 174.425781 550.59375 173.585938 546.019531 173.925781 C 535.03125 174.738281 525.695312 183.285156 517.503906 189.921875 C 508.9375 196.863281 500.90625 204.457031 493.496094 212.621094 C 486.449219 220.386719 479.257812 228.746094 477.410156 239.402344 C 475.417969 250.917969 478.804688 261.699219 481.890625 272.660156 C 481.816406 272.75 481.734375 272.832031 481.667969 272.933594 C 472.683594 286.605469 463.996094 301.792969 468.644531 318.683594 C 469.648438 322.328125 471.121094 325.761719 472.925781 329.015625 C 466.714844 335.910156 467.503906 346.234375 470.964844 354.40625 C 474.945312 363.800781 481.113281 372.46875 487.882812 380.050781 C 494.480469 387.445312 502.160156 393.921875 510.53125 399.222656 C 518.449219 404.234375 529.582031 410.175781 538.167969 403.179688 C 545.65625 397.085938 545.019531 387.738281 542.089844 379.484375 C 543.554688 380.164062 545.015625 380.84375 546.476562 381.511719 C 554.28125 385.09375 562.859375 389.878906 571.695312 389.679688 C 578.78125 389.515625 584.957031 385.667969 588.285156 379.421875 C 591.9375 372.574219 592.199219 364.300781 589.515625 357.078125 C 586.980469 350.238281 582.566406 344.464844 577.753906 339.070312 C 585.085938 335.941406 591.828125 332.976562 600.066406 333.1875 C 608.839844 333.410156 617.371094 335.867188 626.027344 337.070312 C 632.96875 338.035156 640.042969 338.597656 647.03125 337.761719 C 653.65625 336.96875 660.183594 335.007812 665.585938 330.96875 C 670.570312 327.242188 673.765625 322.234375 677.046875 317.058594 C 690.140625 296.402344 702.191406 275.078125 714.085938 253.71875 C 721.753906 239.953125 729.558594 226.207031 736.765625 212.195312 C 736.882812 211.96875 737.007812 211.746094 737.125 211.523438 C 738.023438 209.835938 737.316406 207.34375 735.25 206.910156 Z M 533.492188 375.453125 C 536.914062 381.933594 541.125 391.976562 534.546875 398.046875 C 528.207031 403.894531 517.863281 396.542969 512.289062 392.886719 C 498.582031 383.894531 487.132812 371.480469 479.253906 357.105469 C 475.644531 350.523438 472.199219 341.347656 476.511719 334.667969 C 482.503906 342.976562 490.652344 349.910156 498.851562 355.691406 C 509.664062 363.316406 521.488281 369.625 533.472656 375.40625 C 533.480469 375.421875 533.484375 375.4375 533.492188 375.453125 Z M 679.726562 300.777344 C 676.917969 305.425781 674.070312 310.054688 671.15625 314.636719 C 668.078125 319.46875 665.0625 324.101562 660.050781 327.15625 C 648.617188 334.128906 633.503906 332.210938 621 329.910156 C 612.871094 328.414062 604.597656 326.476562 596.277344 326.957031 C 588.433594 327.410156 581.726562 330.5625 574.636719 333.625 C 574.132812 333.839844 573.625 334.039062 573.117188 334.242188 C 571.542969 333.332031 569.734375 334.234375 568.953125 335.691406 C 564.257812 337.042969 559.441406 337.363281 554.71875 335.125 C 549.179688 332.492188 544.785156 327.402344 543.296875 321.417969 C 539.964844 308.015625 552.730469 297.253906 562.582031 290.765625 C 576.265625 281.757812 591.003906 274.09375 605.847656 267.210938 C 609.699219 265.421875 613.578125 263.707031 617.480469 262.042969 C 621.1875 260.460938 617.992188 255.050781 614.3125 256.621094 C 597.945312 263.59375 582.046875 271.652344 566.773438 280.78125 C 555.113281 287.753906 541.667969 296.304688 537.601562 310.140625 C 533.628906 323.648438 542.097656 337.910156 555.339844 342.074219 C 560.789062 343.789062 566.234375 343.125 571.480469 341.472656 C 579.617188 350.320312 588.214844 361.382812 583.890625 373.90625 C 581.878906 379.730469 577.074219 383.542969 570.804688 383.394531 C 562.988281 383.207031 555.210938 378.667969 548.285156 375.460938 C 533.789062 368.753906 519.214844 361.664062 505.847656 352.871094 C 493.90625 345.015625 481.703125 334.871094 476.144531 321.292969 C 473.070312 313.773438 472.839844 305.871094 475.289062 298.144531 C 477.273438 291.878906 480.605469 286.144531 484.15625 280.609375 C 486.257812 287.988281 488.394531 295.355469 490.660156 302.683594 C 492.257812 307.832031 493.902344 312.96875 495.589844 318.085938 C 497.058594 322.539062 498.195312 327.460938 500.75 331.457031 C 504.164062 336.800781 509.882812 339.984375 516.273438 338.9375 C 522.578125 337.902344 527.660156 332.945312 530.472656 327.421875 C 535.078125 318.398438 534.851562 307.300781 534.835938 297.425781 C 534.816406 285.289062 533.585938 273.171875 531.625 261.203125 C 530.632812 255.160156 529.433594 249.15625 528.097656 243.183594 C 527.214844 239.242188 521.160156 240.910156 522.042969 244.851562 C 527.082031 267.394531 530.003906 290.585938 527.835938 313.683594 C 527.230469 320.140625 524.957031 327.523438 519.144531 331.183594 C 515.050781 333.765625 510.28125 333.34375 507.09375 329.566406 C 504.539062 326.535156 503.625 322.382812 502.402344 318.710938 C 500.765625 313.785156 499.167969 308.847656 497.613281 303.894531 C 494.734375 294.710938 492.035156 285.476562 489.414062 276.214844 C 486.515625 265.957031 482.421875 255.335938 483.082031 244.523438 C 483.738281 233.792969 490.101562 225.792969 497 218.097656 C 504.046875 210.234375 511.667969 202.886719 519.785156 196.136719 C 523.878906 192.730469 528.097656 189.480469 532.445312 186.410156 C 536.863281 183.292969 541.445312 180.347656 547.015625 180.152344 C 554.265625 179.902344 561.890625 181.550781 569.066406 182.589844 C 576.074219 183.605469 583.074219 184.695312 590.0625 185.832031 C 620.175781 190.722656 650.171875 196.351562 680.113281 202.199219 C 691.765625 204.472656 703.40625 206.792969 715.039062 209.15625 C 719.855469 210.132812 724.726562 211.398438 729.601562 212.269531 C 724.632812 221.546875 719.597656 230.789062 714.515625 240.007812 C 703.242188 260.445312 691.792969 280.800781 679.726562 300.777344 Z M 679.726562 300.777344 " fill-opacity="1" fill-rule="nonzero"/><path fill="#f9bb21" d="M 539.691406 316.464844 C 540.367188 302.746094 552.878906 292.957031 564.585938 285.777344 C 578.140625 277.460938 592.214844 269.996094 606.6875 263.398438 L 662.351562 169.285156 L 600.183594 127.21875 L 526.617188 251.292969 C 530.84375 272.203125 532.976562 293.457031 530.878906 314.699219 C 528.636719 337.359375 507.535156 343.710938 501.292969 325.261719 C 498.800781 317.902344 496.664062 311.351562 494.707031 305.113281 L 481.457031 327.464844 L 473.1875 403.539062 C 472.726562 407.679688 477.238281 410.519531 480.738281 408.292969 L 544.980469 367.738281 L 561.40625 339.964844 C 549.648438 339.4375 539.101562 328.332031 539.691406 316.464844 Z M 539.691406 316.464844 " fill-opacity="1" fill-rule="nonzero"/><path fill="#f6f0e4" d="M 653.785156 143.570312 C 642.371094 132.390625 607.789062 114.046875 598.347656 129.335938 C 595.484375 133.96875 595.878906 138.789062 598.542969 143.242188 C 606.113281 155.898438 619.488281 165.789062 633.121094 171.097656 C 642.203125 174.632812 657.765625 177.492188 663.886719 167.421875 C 668.894531 159.183594 659.21875 148.898438 653.785156 143.570312 Z M 653.785156 143.570312 " fill-opacity="1" fill-rule="nonzero"/><path fill="#200f02" d="M 482.480469 330.730469 C 480.066406 327.484375 485.515625 324.355469 487.902344 327.5625 C 494.320312 336.195312 502.613281 343.394531 511.714844 349.074219 C 520.984375 354.859375 531.371094 359.589844 542.285156 361.042969 C 543.960938 361.265625 545.445312 362.300781 545.425781 364.183594 C 545.410156 365.71875 543.980469 367.550781 542.285156 367.320312 C 518.878906 364.207031 496.445312 349.519531 482.480469 330.730469 Z M 595.636719 127.75 C 591.414062 135.089844 593.667969 142.140625 598.320312 148.601562 C 602.75 154.753906 608.214844 159.980469 614.34375 164.421875 C 624.371094 171.6875 637.25 177.859375 649.9375 177.492188 C 656.644531 177.296875 662.882812 174.808594 666.597656 169.007812 C 668.785156 165.59375 663.351562 162.441406 661.179688 165.839844 C 657.976562 170.839844 651.828125 171.554688 646.371094 171.113281 C 640.070312 170.605469 633.925781 168.351562 628.308594 165.542969 C 621.242188 162.015625 614.710938 157.4375 609.167969 151.796875 C 603.976562 146.507812 596.617188 138.636719 601.058594 130.917969 C 603.078125 127.410156 597.65625 124.242188 595.636719 127.75 Z M 595.636719 127.75 " fill-opacity="1" fill-rule="nonzero"/><path fill="#200f02" d="M 490.09375 216.453125 C 484.523438 222.925781 479.300781 229.910156 477.585938 238.457031 C 475.707031 247.839844 477.480469 256.820312 480 265.875 C 484.570312 282.320312 489.269531 298.71875 494.558594 314.949219 C 496.71875 321.570312 498.226562 329.621094 503.332031 334.734375 C 506.871094 338.277344 511.789062 339.8125 516.703125 338.867188 C 521.859375 337.867188 526.101562 334.222656 528.976562 329.96875 C 533.066406 323.914062 533.953125 316.726562 534.4375 309.617188 C 535.949219 287.304688 532.957031 264.929688 528.09375 243.183594 C 527.210938 239.238281 521.160156 240.910156 522.039062 244.851562 C 525.9375 262.289062 528.574219 280.03125 528.554688 297.933594 C 528.546875 305.539062 528.753906 313.886719 526.320312 321.183594 C 524.898438 325.449219 522.207031 329.667969 518.109375 331.773438 C 515.128906 333.308594 511.65625 333.304688 508.894531 331.292969 C 504.074219 327.773438 502.921875 320.328125 501.195312 315.058594 C 496.507812 300.78125 492.253906 286.371094 488.199219 271.902344 C 485.6875 262.941406 482.511719 253.957031 483.078125 244.519531 C 483.640625 235.132812 488.574219 227.8125 494.53125 220.890625 C 497.15625 217.847656 492.738281 213.386719 490.09375 216.453125 Z M 490.09375 216.453125 " fill-opacity="1" fill-rule="nonzero"/><path fill="#200f02" d="M 614.308594 256.621094 C 599.894531 262.765625 585.839844 269.742188 572.261719 277.5625 C 561.253906 283.902344 549.421875 290.570312 541.960938 301.1875 C 534.773438 311.421875 534.820312 324.503906 543.125 334.0625 C 546.945312 338.457031 552.394531 341.769531 558.160156 342.753906 C 564.585938 343.855469 570.710938 342.058594 576.59375 339.566406 C 584.40625 336.253906 591.375 332.964844 600.070312 333.183594 C 608.839844 333.410156 617.375 335.851562 626.027344 337.066406 C 627.71875 337.304688 629.378906 336.652344 629.890625 334.875 C 630.308594 333.40625 629.371094 331.246094 627.695312 331.011719 C 614.039062 329.089844 600.015625 324.335938 586.335938 328.765625 C 575.191406 332.371094 564.082031 341.128906 552.480469 333.886719 C 548 331.09375 544.578125 326.550781 543.292969 321.417969 C 541.980469 316.1875 543.4375 310.746094 546.164062 306.222656 C 552.308594 296.019531 563.757812 289.777344 573.730469 283.964844 C 587.835938 275.746094 602.460938 268.441406 617.476562 262.042969 C 621.183594 260.460938 617.988281 255.050781 614.308594 256.621094 Z M 614.308594 256.621094 " fill-opacity="1" fill-rule="nonzero"/><g clip-path="url(#4e2b69616a)"><path fill="#200f02" d="M 338.632812 275.71875 C 340.589844 280.03125 340.683594 284.9375 338.992188 289.359375 C 328.199219 317.609375 305.226562 341.191406 278.113281 357.402344 C 258.972656 368.84375 237.351562 377.078125 214.761719 379.230469 C 194.21875 381.1875 172.851562 377.875 154.84375 368.527344 C 151.472656 366.773438 148.785156 363.929688 147.160156 360.492188 C 138.398438 341.941406 130.019531 323.261719 121.992188 304.457031 C 133.363281 303.476562 144.738281 302.492188 156.113281 301.511719 C 171.945312 300.140625 187.777344 298.773438 203.609375 297.40625 C 208.042969 297.023438 212.480469 296.640625 216.914062 296.257812 C 218.863281 296.089844 220.992188 296.195312 222.554688 294.914062 C 228.460938 290.078125 233.828125 284.378906 239.402344 279.171875 C 251.457031 267.90625 263.515625 256.640625 275.570312 245.375 C 287.109375 234.59375 298.648438 223.8125 310.183594 213.03125 Z M 127.210938 416.960938 C 125.234375 385.910156 123.257812 354.859375 121.277344 323.804688 C 120.828125 316.761719 120.382812 309.722656 119.933594 302.679688 C 121.578125 301.148438 123.21875 299.621094 124.863281 298.09375 L 114.707031 298.96875 C 114.675781 299 114.644531 299.027344 114.617188 299.054688 C 113.746094 299.863281 113.527344 300.808594 113.707031 301.679688 C 113.65625 301.941406 113.625 302.21875 113.644531 302.527344 C 114.898438 322.167969 116.148438 341.808594 117.398438 361.449219 C 119.378906 392.503906 121.355469 423.554688 123.335938 454.605469 C 123.59375 458.65625 123.851562 462.703125 124.109375 466.75 C 124.023438 466.90625 123.9375 467.0625 123.863281 467.222656 C 117.910156 479.882812 113.304688 493.175781 109.925781 506.496094 C 113.871094 510.304688 118.242188 513.792969 123.308594 515.894531 C 128.375 517.996094 134.222656 518.601562 139.351562 516.660156 C 144.480469 514.71875 148.667969 509.945312 149.285156 504.398438 C 143.730469 492.859375 137.488281 481.660156 130.648438 470.832031 C 129.5 452.875 128.359375 434.917969 127.210938 416.960938 Z M 182.199219 164.15625 L 30.308594 306.085938 C 37.027344 305.453125 43.761719 304.933594 50.484375 304.355469 C 66.625 302.960938 82.765625 301.566406 98.90625 300.171875 C 104.238281 299.710938 109.570312 299.25 114.902344 298.789062 C 118.566406 295.378906 122.234375 291.972656 125.902344 288.5625 C 142.230469 273.375 158.558594 258.191406 174.890625 243.003906 C 185.183594 233.433594 195.476562 223.863281 205.765625 214.292969 C 208.722656 211.542969 213.171875 215.976562 210.207031 218.730469 C 206.445312 222.230469 202.683594 225.726562 198.921875 229.226562 C 182.59375 244.410156 166.261719 259.59375 149.929688 274.78125 C 141.640625 282.492188 133.347656 290.203125 125.058594 297.910156 C 134.917969 297.058594 144.769531 296.207031 154.628906 295.355469 C 170.054688 294.023438 185.480469 292.6875 200.910156 291.355469 C 206.851562 290.84375 212.789062 290.328125 218.730469 289.816406 C 220.382812 287.953125 222.554688 286.324219 224.339844 284.652344 C 228.605469 280.667969 232.871094 276.683594 237.136719 272.699219 C 250.058594 260.621094 262.984375 248.542969 275.910156 236.464844 C 290.921875 222.4375 305.9375 208.40625 320.953125 194.375 C 333.316406 182.824219 345.679688 171.269531 358.042969 159.714844 C 362.273438 155.765625 366.5 151.816406 370.730469 147.863281 Z M 182.199219 164.15625 " fill-opacity="1" fill-rule="nonzero"/></g></svg>