<svg xmlns="http://www.w3.org/2000/svg" xmlns:xlink="http://www.w3.org/1999/xlink" width="1025" zoomAndPan="magnify" viewBox="0 0 768.75 768.749994" height="1025" preserveAspectRatio="xMidYMid meet" version="1.0"><defs><clipPath id="7959ef4825"><path d="M 0 0 L 768.5 0 L 768.5 768.5 L 0 768.5 Z M 0 0 " clip-rule="nonzero"/></clipPath><clipPath id="9215a84b75"><path d="M 12.699219 305 L 173 305 L 173 493 L 12.699219 493 Z M 12.699219 305 " clip-rule="nonzero"/></clipPath><clipPath id="40ed968146"><path d="M 12.699219 198.84375 L 183 198.84375 L 183 352 L 12.699219 352 Z M 12.699219 198.84375 " clip-rule="nonzero"/></clipPath><clipPath id="3bdf054879"><path d="M 596 305 L 755.707031 305 L 755.707031 493 L 596 493 Z M 596 305 " clip-rule="nonzero"/></clipPath><clipPath id="69df80f6e4"><path d="M 586 198.84375 L 755.707031 198.84375 L 755.707031 352 L 586 352 Z M 586 198.84375 " clip-rule="nonzero"/></clipPath><clipPath id="c34d4f108f"><path d="M 181 289 L 588 289 L 588 652.445312 L 181 652.445312 Z M 181 289 " clip-rule="nonzero"/></clipPath><clipPath id="a988218bcb"><path d="M 30 198.84375 L 754 198.84375 L 754 652.445312 L 30 652.445312 Z M 30 198.84375 " clip-rule="nonzero"/></clipPath></defs><g clip-path="url(#7959ef4825)"><path fill="#ffffff" d="M 0 0 L 768.5 0 L 768.5 768.5 L 0 768.5 Z M 0 0 " fill-opacity="1" fill-rule="nonzero"/><path fill="#ffffff" d="M 0 0 L 768.5 0 L 768.5 768.5 L 0 768.5 Z M 0 0 " fill-opacity="1" fill-rule="nonzero"/></g><path fill="#eeb79e" d="M 228.476562 456.921875 L 230.851562 352.859375 C 188.546875 358.613281 183.027344 388.671875 183.027344 388.671875 C 163.121094 374.945312 163.121094 374.945312 142.144531 373.644531 C 110.3125 371.6875 88.359375 389.386719 88.359375 389.386719 C 95.179688 367.210938 87.675781 357.160156 86.84375 334.242188 C 86.488281 324.21875 85.953125 320.632812 88.359375 299.878906 C 89.542969 289.535156 94.648438 277.257812 98.117188 267.535156 C 103.816406 271.390625 117.609375 264.984375 122.742188 261.933594 C 127.992188 258.789062 132.535156 254.699219 137.753906 251.527344 C 146.507812 246.21875 157.957031 241.355469 156.535156 229.855469 C 155.289062 219.65625 145.707031 214.941406 136.863281 211.058594 C 130.425781 208.242188 123.898438 198.929688 115.917969 200.828125 C 112.121094 201.75 110.105469 205.542969 107.078125 207.589844 C 103.726562 209.871094 99.574219 210.9375 95.894531 212.6875 C 91.175781 214.910156 86.875 218.441406 82.335938 220.722656 C 70.792969 226.472656 69.371094 234.597656 65.664062 245.65625 C 58.542969 267 47.675781 284.730469 35.910156 304.179688 C 23.511719 324.664062 18.632812 343.371094 15.496094 366.675781 C 13.941406 378.179688 14.902344 391.222656 16.433594 402.460938 C 17.84375 412.835938 15.851562 424.488281 26.433594 430.949219 C 28.171875 432.019531 30.828125 432.195312 32.886719 433.441406 C 34.824219 434.628906 36.367188 436.464844 38.171875 437.769531 C 53.054688 448.5625 69.636719 452.59375 87.023438 457.484375 C 103.371094 462.050781 117.667969 471.242188 134.285156 475.332031 C 151.105469 479.453125 168.90625 479.929688 186.023438 477.230469 C 186.023438 477.230469 211.835938 476.28125 228.476562 456.921875 " fill-opacity="1" fill-rule="nonzero"/><path stroke-linecap="butt" transform="matrix(0.296677, 0, 0, -0.296472, -246.382458, 1056.833314)" fill="none" stroke-linejoin="miter" d="M 1447.399115 2253.69369 C 1447.399115 2253.69369 1445.700613 2210.806554 1477.498153 2186.299619 " stroke="#dea08d" stroke-width="20" stroke-opacity="1" stroke-miterlimit="10"/><g clip-path="url(#9215a84b75)"><path stroke-linecap="butt" transform="matrix(0.296677, 0, 0, -0.296472, -246.382458, 1056.833314)" fill="none" stroke-linejoin="miter" d="M 1128.304549 2251.2957 C 1128.304549 2251.2957 1106.000188 2191.201006 1071.806312 2186.299619 " stroke="#dea08d" stroke-width="20" stroke-opacity="1" stroke-miterlimit="10"/></g><g clip-path="url(#40ed968146)"><path stroke-linecap="butt" transform="matrix(0.296677, 0, 0, -0.296472, -246.382458, 1056.833314)" fill="none" stroke-linejoin="miter" d="M 1099.996181 2704.502712 C 1099.996181 2704.502712 1118.798204 2661.496994 1161.194924 2662.300716 " stroke="#dea08d" stroke-width="20" stroke-opacity="1" stroke-miterlimit="10"/></g><path fill="#eeb79e" d="M 540.226562 456.921875 L 537.851562 352.859375 C 580.160156 358.613281 585.675781 388.671875 585.675781 388.671875 C 605.585938 374.945312 605.585938 374.945312 626.558594 373.644531 C 658.363281 371.6875 680.347656 389.386719 680.347656 389.386719 C 673.523438 367.210938 681.03125 357.160156 681.859375 334.242188 C 682.214844 324.191406 682.75 320.632812 680.347656 299.878906 C 679.128906 289.535156 674.058594 277.257812 670.585938 267.535156 C 664.890625 271.390625 651.09375 264.984375 645.960938 261.933594 C 640.710938 258.789062 636.171875 254.699219 630.949219 251.527344 C 622.199219 246.21875 610.746094 241.355469 612.171875 229.855469 C 613.417969 219.65625 623 214.941406 631.839844 211.058594 C 638.277344 208.242188 644.804688 198.929688 652.757812 200.828125 C 656.582031 201.75 658.601562 205.511719 661.625 207.589844 C 664.980469 209.871094 669.132812 210.9375 672.8125 212.6875 C 677.527344 214.910156 681.832031 218.441406 686.371094 220.722656 C 697.910156 226.472656 699.335938 234.597656 703.042969 245.65625 C 710.164062 267 721.019531 284.730469 732.800781 304.179688 C 745.199219 324.664062 750.066406 343.371094 753.210938 366.675781 C 754.753906 378.179688 753.804688 391.222656 752.261719 402.460938 C 750.867188 412.808594 752.855469 424.488281 742.261719 430.949219 C 740.542969 432.019531 737.871094 432.195312 735.824219 433.441406 C 733.867188 434.628906 732.324219 436.464844 730.542969 437.769531 C 715.652344 448.5625 699.066406 452.59375 681.683594 457.484375 C 665.335938 462.050781 651.003906 471.242188 634.421875 475.332031 C 617.570312 479.453125 599.800781 479.929688 582.679688 477.230469 C 582.679688 477.230469 556.871094 476.28125 540.226562 456.921875 " fill-opacity="1" fill-rule="nonzero"/><path stroke-linecap="butt" transform="matrix(0.296677, 0, 0, -0.296472, -246.382458, 1056.833314)" fill="none" stroke-linejoin="miter" d="M 2804.594479 2253.69369 C 2804.594479 2253.69369 2806.306147 2210.806554 2774.495441 2186.299619 " stroke="#dea08d" stroke-width="20" stroke-opacity="1" stroke-miterlimit="10"/><g clip-path="url(#3bdf054879)"><path stroke-linecap="butt" transform="matrix(0.296677, 0, 0, -0.296472, -246.382458, 1056.833314)" fill="none" stroke-linejoin="miter" d="M 3123.702211 2251.2957 C 3123.702211 2251.2957 3146.006572 2191.201006 3180.200448 2186.299619 " stroke="#dea08d" stroke-width="20" stroke-opacity="1" stroke-miterlimit="10"/></g><g clip-path="url(#69df80f6e4)"><path stroke-linecap="butt" transform="matrix(0.296677, 0, 0, -0.296472, -246.382458, 1056.833314)" fill="none" stroke-linejoin="miter" d="M 3151.997413 2704.502712 C 3151.997413 2704.502712 3133.195389 2661.496994 3090.79867 2662.300716 " stroke="#dea08d" stroke-width="20" stroke-opacity="1" stroke-miterlimit="10"/></g><g clip-path="url(#c34d4f108f)"><path fill="#ec3152" d="M 384.351562 652.503906 L 205.632812 450.191406 C 170.328125 410.199219 174.128906 349.152344 214.148438 313.84375 C 254.171875 278.5625 315.226562 282.328125 350.589844 322.324219 L 384.351562 360.566406 L 418.113281 322.324219 C 453.449219 282.328125 514.535156 278.5625 554.527344 313.84375 C 594.578125 349.152344 598.40625 410.199219 563.070312 450.191406 L 384.351562 652.503906 " fill-opacity="1" fill-rule="nonzero"/></g><g clip-path="url(#a988218bcb)"><path stroke-linecap="butt" transform="matrix(0.296677, 0, 0, -0.296472, -246.382458, 1056.833314)" fill="none" stroke-linejoin="miter" d="M 1641.805191 2038.006311 L 2125.996797 2038.006311 L 2213.700073 2319.704306 L 2313.898532 1782.396344 L 2420.403832 2049.706396 L 2662.302134 2049.706396 " stroke="#ffffff" stroke-width="50" stroke-opacity="1" stroke-miterlimit="10"/></g></svg>