<svg xmlns="http://www.w3.org/2000/svg" xmlns:xlink="http://www.w3.org/1999/xlink" width="1025" zoomAndPan="magnify" viewBox="0 0 768.75 768.749994" height="1025" preserveAspectRatio="xMidYMid meet" version="1.0"><defs><clipPath id="05aa46cc17"><path d="M 0 0 L 768.5 0 L 768.5 768.5 L 0 768.5 Z M 0 0 " clip-rule="nonzero"/></clipPath><clipPath id="c78d4aafb6"><path d="M 33.320312 48.082031 L 706 48.082031 L 706 720.613281 L 33.320312 720.613281 Z M 33.320312 48.082031 " clip-rule="nonzero"/></clipPath><clipPath id="a2fa472219"><path d="M 613 407 L 756.835938 407 L 756.835938 556 L 613 556 Z M 613 407 " clip-rule="nonzero"/></clipPath></defs><g clip-path="url(#05aa46cc17)"><path fill="#ffffff" d="M 0 0 L 768.5 0 L 768.5 768.5 L 0 768.5 Z M 0 0 " fill-opacity="1" fill-rule="nonzero"/><path fill="#ffffff" d="M 0 0 L 768.5 0 L 768.5 768.5 L 0 768.5 Z M 0 0 " fill-opacity="1" fill-rule="nonzero"/></g><g clip-path="url(#c78d4aafb6)"><path fill="#d81d25" d="M 705.914062 384.347656 C 705.914062 570.027344 555.46875 720.542969 369.914062 720.542969 C 184.285156 720.542969 33.84375 570.027344 33.84375 384.347656 C 33.84375 198.667969 184.285156 48.152344 369.914062 48.152344 C 555.46875 48.152344 705.914062 198.667969 705.914062 384.347656 " fill-opacity="1" fill-rule="nonzero"/></g><path fill="#ffffff" d="M 651.757812 384.347656 C 651.757812 540.089844 525.546875 666.324219 369.914062 666.324219 C 214.210938 666.324219 88.035156 540.089844 88.035156 384.347656 C 88.035156 228.605469 214.210938 102.371094 369.914062 102.371094 C 525.546875 102.371094 651.757812 228.605469 651.757812 384.347656 " fill-opacity="1" fill-rule="nonzero"/><path fill="#d81d25" d="M 593.089844 384.347656 C 593.089844 507.679688 493.152344 607.664062 369.914062 607.664062 C 246.601562 607.664062 146.703125 507.679688 146.703125 384.347656 C 146.703125 261.015625 246.601562 161.03125 369.914062 161.03125 C 493.152344 161.03125 593.089844 261.015625 593.089844 384.347656 " fill-opacity="1" fill-rule="nonzero"/><path fill="#ffffff" d="M 518.886719 384.347656 C 518.886719 466.675781 452.203125 533.429688 369.914062 533.429688 C 287.585938 533.429688 220.867188 466.675781 220.867188 384.347656 C 220.867188 302.019531 287.585938 235.265625 369.914062 235.265625 C 452.203125 235.265625 518.886719 302.019531 518.886719 384.347656 " fill-opacity="1" fill-rule="nonzero"/><path fill="#d81d25" d="M 464.839844 384.347656 C 464.839844 436.8125 422.316406 479.320312 369.914062 479.320312 C 317.441406 479.320312 274.953125 436.8125 274.953125 384.347656 C 274.953125 331.886719 317.441406 289.339844 369.914062 289.339844 C 422.316406 289.339844 464.839844 331.886719 464.839844 384.347656 " fill-opacity="1" fill-rule="nonzero"/><path fill="#4e4b4c" d="M 600.785156 180.117188 L 371.382812 385.386719 " fill-opacity="1" fill-rule="nonzero"/><path fill="#4e4b4c" d="M 366.835938 389.753906 L 366.691406 389.578125 C 364.367188 386.996094 364.582031 383.023438 367.15625 380.730469 L 596.5625 175.460938 C 599.175781 173.132812 603.148438 173.347656 605.4375 175.929688 C 607.765625 178.507812 607.550781 182.480469 604.972656 184.808594 L 375.570312 390.078125 C 373.027344 392.332031 369.199219 392.191406 366.835938 389.753906 " fill-opacity="1" fill-rule="nonzero"/><path fill="#43aa8d" d="M 618.96875 161.386719 L 610.054688 78.84375 L 560.515625 122.140625 L 559.191406 168.441406 L 557.832031 214.746094 L 649.964844 224.628906 L 700.148438 180.761719 L 618.96875 161.386719 " fill-opacity="1" fill-rule="nonzero"/><path fill="#4e4b4c" d="M 667.757812 468.96875 L 371.382812 385.960938 " fill-opacity="1" fill-rule="nonzero"/><path fill="#4e4b4c" d="M 365.402344 384.027344 L 365.296875 384.242188 C 364.402344 387.605469 366.335938 391.082031 369.664062 392.011719 L 666.039062 475.023438 C 669.367188 475.953125 672.875 474.019531 673.769531 470.652344 C 674.734375 467.320312 672.765625 463.847656 669.4375 462.917969 L 373.027344 379.90625 C 369.804688 379.011719 366.441406 380.839844 365.402344 384.027344 " fill-opacity="1" fill-rule="nonzero"/><g clip-path="url(#a2fa472219)"><path fill="#43aa8d" d="M 692.347656 477.777344 L 720.730469 555.738281 L 657.160156 538.765625 L 635.578125 497.796875 L 613.957031 456.828125 L 653.117188 432.085938 L 692.238281 407.339844 L 756.667969 424.527344 L 692.347656 477.777344 " fill-opacity="1" fill-rule="nonzero"/></g></svg>