<svg xmlns="http://www.w3.org/2000/svg" xmlns:xlink="http://www.w3.org/1999/xlink" width="1025" zoomAndPan="magnify" viewBox="0 0 768.75 768.749994" height="1025" preserveAspectRatio="xMidYMid meet" version="1.0"><defs><clipPath id="cdf0821b1b"><path d="M 0 0 L 768.5 0 L 768.5 768.5 L 0 768.5 Z M 0 0 " clip-rule="nonzero"/></clipPath><clipPath id="d02f9a5009"><path d="M 0 15 L 47.984375 15 L 47.984375 35.988281 L 0 35.988281 Z M 0 15 " clip-rule="nonzero"/></clipPath><clipPath id="975cb9cc56"><path d="M 369 111.484375 L 416 111.484375 L 416 538 L 369 538 Z M 369 111.484375 " clip-rule="nonzero"/></clipPath><clipPath id="1879fc4471"><path d="M 23.871094 348 L 751.136719 348 L 751.136719 657.304688 L 23.871094 657.304688 Z M 23.871094 348 " clip-rule="nonzero"/></clipPath></defs><g clip-path="url(#cdf0821b1b)"><path fill="#ffffff" d="M 0 0 L 768.5 0 L 768.5 768.5 L 0 768.5 Z M 0 0 " fill-opacity="1" fill-rule="nonzero"/><path fill="#ffffff" d="M 0 0 L 768.5 0 L 768.5 768.5 L 0 768.5 Z M 0 0 " fill-opacity="1" fill-rule="nonzero"/></g><path fill="#ffffff" d="M 18.09375 30.121094 C 18.195312 30.214844 18.320312 30.269531 18.449219 30.300781 C 18.527344 30.316406 18.601562 30.328125 18.679688 30.328125 L 18.679688 9.550781 L 15.6875 9.550781 L 15.6875 28.09375 L 17.960938 30.007812 Z M 18.09375 30.121094 " fill-opacity="1" fill-rule="nonzero"/><path fill="#ffffff" d="M 4.613281 13.734375 L 1.625 13.734375 L 1.625 28.597656 L 4.613281 26.488281 Z M 4.613281 13.734375 " fill-opacity="1" fill-rule="nonzero"/><path fill="#ffffff" d="M 9.839844 23.234375 L 10.214844 23.476562 C 10.230469 23.488281 10.25 23.503906 10.265625 23.515625 L 11.648438 24.679688 L 11.648438 5.972656 L 8.652344 5.972656 L 8.652344 23.628906 L 9.207031 23.242188 C 9.398438 23.109375 9.648438 23.101562 9.839844 23.234375 Z M 9.839844 23.234375 " fill-opacity="1" fill-rule="nonzero"/><path fill="#ffffff" d="M 25.707031 0 L 22.714844 0 L 22.714844 27.980469 L 25.707031 26.125 Z M 25.707031 0 " fill-opacity="1" fill-rule="nonzero"/><path fill="#ffffff" d="M 32.738281 3.582031 L 29.75 3.582031 L 29.75 23.613281 L 32.738281 21.761719 Z M 32.738281 3.582031 " fill-opacity="1" fill-rule="nonzero"/><g clip-path="url(#d02f9a5009)"><path fill="#ffffff" d="M 47.703125 17.113281 C 47.691406 17.085938 47.660156 17.042969 47.617188 17.03125 L 36.316406 15.523438 C 36.300781 15.523438 36.269531 15.519531 36.226562 15.574219 C 36.183594 15.632812 36.15625 15.734375 36.210938 15.839844 L 37.941406 19.246094 C 38.070312 19.496094 37.976562 19.800781 37.738281 19.945312 L 19.71875 31.121094 C 18.988281 31.582031 18.039062 31.511719 17.371094 30.945312 L 9.542969 24.351562 L 0.00390625 31.09375 L 7.527344 28.90625 C 8.160156 28.722656 8.84375 28.863281 9.359375 29.292969 L 17.203125 35.777344 C 17.207031 35.777344 17.207031 35.777344 17.214844 35.777344 C 17.230469 35.773438 17.246094 35.773438 17.261719 35.773438 C 17.316406 35.773438 17.371094 35.785156 17.429688 35.800781 L 39.492188 23.617188 C 39.628906 23.546875 39.777344 23.53125 39.925781 23.574219 C 40.070312 23.617188 40.191406 23.714844 40.257812 23.851562 L 42.117188 27.511719 C 42.144531 27.566406 42.183594 27.597656 42.21875 27.597656 C 42.269531 27.597656 42.300781 27.554688 42.324219 27.519531 L 47.710938 17.359375 C 47.753906 17.265625 47.738281 17.171875 47.703125 17.113281 Z M 47.703125 17.113281 " fill-opacity="1" fill-rule="nonzero"/></g><path fill="#ffffff" d="M 299.527344 570.472656 C 301.097656 571.875 303 572.703125 304.984375 573.199219 C 306.140625 573.445312 307.296875 573.613281 308.457031 573.613281 L 308.457031 257.042969 L 262.910156 257.042969 L 262.910156 539.558594 L 297.542969 568.734375 Z M 299.527344 570.472656 " fill-opacity="1" fill-rule="nonzero"/><path fill="#ffffff" d="M 94.128906 320.769531 L 48.585938 320.769531 L 48.585938 547.246094 L 94.128906 515.09375 Z M 94.128906 320.769531 " fill-opacity="1" fill-rule="nonzero"/><path fill="#ffffff" d="M 173.808594 465.5 L 179.511719 469.21875 C 179.761719 469.382812 180.007812 469.632812 180.257812 469.796875 L 201.332031 487.566406 L 201.332031 202.488281 L 155.707031 202.488281 L 155.707031 471.53125 L 164.136719 465.664062 C 167.03125 463.597656 170.832031 463.515625 173.808594 465.5 Z M 173.808594 465.5 " fill-opacity="1" fill-rule="nonzero"/><g clip-path="url(#975cb9cc56)"><path fill="#ffffff" d="M 415.578125 111.484375 L 369.949219 111.484375 L 369.949219 537.820312 L 415.578125 509.554688 Z M 415.578125 111.484375 " fill-opacity="1" fill-rule="nonzero"/></g><path fill="#ffffff" d="M 522.699219 166.039062 L 477.15625 166.039062 L 477.15625 471.285156 L 522.699219 443.097656 Z M 522.699219 166.039062 " fill-opacity="1" fill-rule="nonzero"/><g clip-path="url(#1879fc4471)"><path fill="#ffffff" d="M 750.746094 372.261719 C 750.578125 371.851562 750.082031 371.1875 749.421875 371.023438 L 577.25 348.046875 C 577.003906 348.046875 576.507812 347.960938 575.847656 348.789062 C 575.183594 349.699219 574.769531 351.269531 575.597656 352.839844 L 601.964844 404.746094 C 603.949219 408.550781 602.542969 413.175781 598.90625 415.410156 L 324.324219 585.679688 C 313.167969 592.707031 298.703125 591.632812 288.535156 583.035156 L 169.261719 482.527344 L 23.871094 585.265625 L 138.515625 551.957031 C 148.1875 549.144531 158.601562 551.296875 166.453125 557.824219 L 285.972656 656.679688 C 286.054688 656.679688 286.054688 656.679688 286.136719 656.679688 C 286.386719 656.597656 286.632812 656.597656 286.882812 656.597656 C 287.707031 656.597656 288.535156 656.761719 289.445312 657.011719 L 625.605469 471.367188 C 627.671875 470.292969 629.984375 470.042969 632.21875 470.707031 C 634.449219 471.367188 636.265625 472.855469 637.257812 474.921875 L 665.609375 530.714844 C 666.023438 531.539062 666.601562 532.035156 667.179688 532.035156 C 667.925781 532.035156 668.421875 531.375 668.75 530.796875 L 750.828125 375.984375 C 751.488281 374.578125 751.242188 373.171875 750.746094 372.261719 Z M 750.746094 372.261719 " fill-opacity="1" fill-rule="nonzero"/></g></svg>