<svg xmlns="http://www.w3.org/2000/svg" xmlns:xlink="http://www.w3.org/1999/xlink" width="1025" zoomAndPan="magnify" viewBox="0 0 768.75 768.749994" height="1025" preserveAspectRatio="xMidYMid meet" version="1.0"><defs><clipPath id="32c54087fc"><path d="M 0 0 L 768.5 0 L 768.5 768.5 L 0 768.5 Z M 0 0 " clip-rule="nonzero"/></clipPath><clipPath id="2cb71f2039"><path d="M 30 20.289062 L 738 20.289062 L 738 747 L 30 747 Z M 30 20.289062 " clip-rule="nonzero"/></clipPath></defs><g clip-path="url(#32c54087fc)"><path fill="#ffffff" d="M 0 0 L 768.5 0 L 768.5 768.5 L 0 768.5 Z M 0 0 " fill-opacity="1" fill-rule="nonzero"/><path fill="#ffffff" d="M 0 0 L 768.5 0 L 768.5 768.5 L 0 768.5 Z M 0 0 " fill-opacity="1" fill-rule="nonzero"/></g><g clip-path="url(#2cb71f2039)"><path fill="#ffffff" d="M 652.339844 249.808594 C 646.074219 249.613281 641.15625 244.375 641.355469 238.113281 C 641.550781 231.851562 646.785156 226.929688 653.050781 227.128906 L 726.667969 229.640625 C 734.382812 229.894531 739.527344 237.574219 737.027344 244.71875 L 712.203125 315.433594 C 710.136719 321.351562 703.667969 324.476562 697.746094 322.414062 C 691.828125 320.351562 688.703125 313.878906 690.765625 307.960938 L 700.921875 279.039062 C 701.148438 278.394531 700.929688 277.707031 700.375 277.304688 C 699.820312 276.90625 699.097656 276.917969 698.558594 277.339844 L 587.707031 363.554688 C 587.136719 364 586.957031 364.769531 587.277344 365.421875 C 609.804688 411.417969 624.398438 458.613281 624.398438 495.554688 C 624.398438 618.957031 538.578125 721.582031 425.4375 742.765625 C 425.421875 742.769531 425.40625 742.769531 425.386719 742.773438 C 405.382812 747.265625 382.542969 747.835938 357.605469 745.5 C 261.71875 735.527344 182.335938 667.578125 152.496094 575.976562 C 152.335938 575.480469 151.96875 575.128906 151.464844 574.984375 C 150.964844 574.84375 150.464844 574.953125 150.070312 575.292969 L 49.058594 661.445312 C 44.292969 665.523438 37.125 664.964844 33.046875 660.199219 C 28.972656 655.4375 29.527344 648.265625 34.292969 644.191406 L 279.535156 435.015625 C 281.039062 433.730469 282.78125 432.902344 284.589844 432.527344 C 284.851562 432.472656 285.0625 432.371094 285.265625 432.195312 L 286.042969 431.53125 C 286.609375 431.046875 287.425781 431.042969 288 431.519531 L 288.910156 432.28125 C 289.101562 432.4375 289.292969 432.535156 289.535156 432.589844 C 291.398438 433.03125 293.167969 433.945312 294.640625 435.316406 C 294.664062 435.339844 294.679688 435.351562 294.703125 435.371094 L 370.863281 498.835938 C 371.078125 499.015625 371.308594 499.121094 371.585938 499.167969 C 373.179688 499.433594 374.8125 499.359375 376.371094 498.949219 C 376.578125 498.894531 376.746094 498.808594 376.917969 498.679688 L 691.703125 253.839844 C 692.214844 253.4375 692.414062 252.792969 692.214844 252.171875 C 692.015625 251.554688 691.472656 251.148438 690.824219 251.125 Z M 278.414062 694.570312 L 278.414062 571.675781 C 278.414062 571.058594 278.074219 570.535156 277.511719 570.285156 C 276.949219 570.039062 276.332031 570.140625 275.875 570.550781 L 233.878906 608.777344 C 233.554688 609.074219 233.382812 609.457031 233.382812 609.898438 L 233.382812 663.125 C 233.382812 663.554688 233.542969 663.925781 233.851562 664.222656 C 246.621094 676.414062 260.800781 687.074219 276.140625 695.886719 C 276.625 696.164062 277.175781 696.164062 277.65625 695.886719 C 278.136719 695.605469 278.414062 695.128906 278.414062 694.570312 Z M 504.589844 478.417969 L 504.589844 682.429688 C 504.589844 683.015625 504.894531 683.515625 505.417969 683.78125 C 505.9375 684.046875 506.523438 684.003906 506.996094 683.660156 C 522.816406 672.25 537 658.777344 549.28125 643.703125 C 549.511719 643.421875 549.621094 643.109375 549.621094 642.742188 L 549.621094 441.253906 C 549.621094 440.644531 549.285156 440.125 548.726562 439.871094 C 548.171875 439.621094 547.554688 439.714844 547.097656 440.121094 L 505.101562 477.28125 C 504.765625 477.582031 504.589844 477.96875 504.589844 478.417969 Z M 368.984375 564.960938 L 368.984375 722.273438 C 368.984375 723.074219 369.605469 723.734375 370.40625 723.785156 C 384.464844 724.667969 398.894531 724.390625 412.746094 722.113281 C 413.484375 721.992188 414.015625 721.363281 414.015625 720.613281 L 414.015625 526.738281 C 414.015625 526.121094 413.675781 525.597656 413.113281 525.347656 C 412.550781 525.101562 411.933594 525.203125 411.476562 525.617188 L 369.484375 563.839844 C 369.15625 564.136719 368.984375 564.519531 368.984375 564.960938 Z M 564.304688 323.445312 C 532.765625 271.464844 493.089844 226.070312 456.148438 205.953125 C 455.570312 205.636719 454.886719 205.71875 454.398438 206.164062 C 453.914062 206.609375 453.765625 207.28125 454.03125 207.890625 C 461.320312 224.714844 477.730469 258.550781 477.730469 276.933594 C 477.730469 306.636719 453.652344 330.714844 423.949219 330.714844 C 394.25 330.714844 370.171875 306.636719 370.171875 276.933594 C 370.171875 215.167969 405.988281 159.589844 405.890625 105.832031 C 405.839844 77.429688 398.160156 49.3125 383.835938 21.449219 C 383.546875 20.890625 382.976562 20.574219 382.347656 20.632812 C 381.71875 20.6875 381.214844 21.101562 381.035156 21.710938 C 326.660156 203.378906 139.789062 339.429688 139.789062 495.550781 C 139.789062 504.535156 140.242188 513.410156 141.128906 522.148438 C 141.1875 522.722656 141.535156 523.1875 142.074219 523.402344 C 142.609375 523.617188 143.183594 523.523438 143.625 523.148438 L 279.53125 407.230469 C 283.960938 403.441406 290.464844 403.65625 294.636719 407.53125 C 294.65625 407.554688 294.675781 407.570312 294.699219 407.585938 L 372.746094 472.625 C 373.300781 473.085938 374.078125 473.101562 374.648438 472.65625 L 563.9375 325.429688 C 564.550781 324.953125 564.707031 324.105469 564.304688 323.445312 Z M 564.304688 323.445312 " fill-opacity="1" fill-rule="evenodd"/></g></svg>